<svg width="394" height="393" viewBox="0 0 394 393" fill="none" xmlns="http://www.w3.org/2000/svg">
<path d="M269.521 240.732L268.146 242.134C287.921 270.744 294.915 291.664 294.511 305.204C294.31 311.951 292.277 316.792 289.16 319.89C286.049 322.982 281.745 324.449 276.769 324.237C266.774 323.81 254.188 316.584 244.145 302.49C234.127 288.432 226.708 267.617 227.039 240.249L225.044 240.135C218.266 306.213 179.33 327.43 156.396 321.064C150.649 319.469 145.87 316.158 142.738 311.385C139.607 306.613 138.078 300.312 138.955 292.661C140.713 277.323 152.151 256.616 179.566 232.497L178.314 230.94C139.021 259.776 108.037 266.873 85.8362 262.181C63.6764 257.497 50.022 241.016 45.4234 222.08C40.8185 203.118 45.3248 181.805 59.3945 167.579C73.4241 153.394 97.1518 146.075 131.372 155.464L132.163 153.65C103.738 136.041 92.6585 116.94 92.3986 100.999C92.139 85.0807 102.659 71.9382 118.284 66.1341C133.896 60.3343 154.582 61.8973 174.396 75.5211C194.213 89.1464 213.198 114.873 225.235 157.441L227.178 156.973C217.676 109.358 249.194 86.6176 269.017 89.7342C273.963 90.5118 278.179 92.8778 280.953 96.8264C283.73 100.779 285.138 106.43 284.243 113.912C282.449 128.921 271.41 151.044 244.277 180.592L245.615 182.067C276.131 159.086 301.561 153.168 320.325 156.72C339.067 160.269 351.342 173.293 355.596 188.65C358.227 198.148 359.58 209.809 358.763 221.039C357.945 232.283 354.962 242.985 349.024 250.667C343.128 258.295 334.257 263.03 321.401 262.296C308.479 261.558 291.495 255.287 269.521 240.732Z" stroke="#F7EBEC" stroke-width="2"/>
<path d="M258.894 201.118L257.892 203.628C279.501 217.491 290.094 229.679 293.603 238.841C295.346 243.393 295.309 247.101 294.143 249.914C292.981 252.718 290.615 254.834 287.295 256.057C280.598 258.525 270.159 257.262 259.395 250.572C248.68 243.914 237.769 231.937 230.241 213.281L227.647 214.194C241.802 261.051 221.273 286.042 204.398 288.159C200.16 288.691 196.114 287.82 192.757 285.551C189.402 283.283 186.642 279.553 185.095 274.204C181.988 263.459 183.818 246.246 195.622 222.037L193.205 220.723C174.659 251.518 155.669 265.017 139.435 268.094C123.257 271.161 109.477 263.941 101.065 252.497C92.6319 241.023 89.6929 225.428 95.1452 211.945C100.568 198.534 114.436 186.884 140.296 183.561L140.338 180.837C116.035 176.939 103.283 167.14 98.6855 156.617C94.1005 146.122 97.4151 134.437 106.264 126.172C115.1 117.919 129.444 113.135 146.66 116.745C163.88 120.357 184.046 132.393 204.324 157.927L206.544 156.302C186.67 126.785 201.686 102.865 215.554 99.476C219.009 98.632 222.378 99.0354 225.228 100.834C228.085 102.637 230.579 105.941 232.069 111.189C235.066 121.746 233.894 139.831 223.813 167.685L226.296 168.849C240.516 144.563 256.053 133.439 269.631 130.566C283.18 127.7 295.027 132.986 302.164 142.073C306.622 147.748 310.832 155.255 313.451 163.078C316.076 170.92 317.055 178.936 315.237 185.702C313.444 192.379 308.896 197.978 300.107 201.072C291.232 204.197 277.985 204.778 258.894 201.118Z" fill="#488E99" stroke="#488E99" stroke-width="2.75294"/>
<path d="M237.807 178.748L237.948 179.907C249.019 180.679 255.565 183.103 258.797 185.849C260.402 187.213 261.158 188.627 261.299 189.935C261.441 191.24 260.983 192.533 259.978 193.686C257.95 196.011 253.73 197.699 248.26 197.396C242.815 197.095 236.193 194.818 229.467 189.306L228.672 190.19C243.764 205.02 241.166 218.756 235.207 223.061C233.71 224.142 231.995 224.652 230.251 224.488C228.508 224.324 226.688 223.483 224.991 221.775C221.583 218.346 218.705 211.439 218.157 199.81L216.968 199.814C216.326 215.339 211.927 224.399 206.41 228.934C200.912 233.454 194.188 233.576 188.624 230.983C183.045 228.382 178.694 223.078 177.964 216.834C177.237 210.624 180.078 203.329 189.194 196.702L188.644 195.66C178.62 199.226 171.752 198.157 167.824 195.12C163.908 192.093 162.74 186.974 164.38 182.004C166.018 177.041 170.464 172.25 177.741 170.046C185.02 167.842 195.164 168.221 208.152 173.695L208.657 172.618C194.996 165.55 195.725 153.364 200.281 149.201C201.415 148.164 202.777 147.618 204.231 147.708C205.688 147.799 207.319 148.534 208.974 150.215C212.301 153.596 215.609 160.697 217.567 173.35L218.75 173.277C219.102 161.117 222.685 153.675 227.238 149.768C231.78 145.869 237.369 145.415 241.961 147.379C244.83 148.606 247.984 150.579 250.6 153.002C253.223 155.431 255.258 158.267 255.973 161.21C256.678 164.114 256.115 167.18 253.425 170.178C250.708 173.204 245.806 176.174 237.807 178.748Z" fill="#F7EBEC" stroke="#F7EBEC" stroke-width="1.18997"/>
</svg>
