<svg width="394" height="393" viewBox="0 0 394 393" fill="none" xmlns="http://www.w3.org/2000/svg">
<path d="M269.521 240.732L268.146 242.134C287.921 270.744 294.915 291.665 294.511 305.204C294.31 311.951 292.277 316.792 289.16 319.89C286.049 322.982 281.745 324.449 276.769 324.237C266.774 323.81 254.188 316.584 244.145 302.491C234.127 288.432 226.708 267.617 227.039 240.249L225.044 240.135C218.266 306.213 179.33 327.43 156.396 321.064C150.649 319.469 145.87 316.158 142.738 311.385C139.607 306.613 138.078 300.312 138.955 292.661C140.713 277.323 152.151 256.616 179.566 232.497L178.314 230.94C139.021 259.776 108.037 266.873 85.8362 262.181C63.6764 257.497 50.022 241.016 45.4234 222.08C40.8185 203.118 45.3248 181.805 59.3945 167.579C73.4241 153.394 97.1518 146.075 131.372 155.464L132.163 153.65C103.738 136.041 92.6585 116.94 92.3986 100.999C92.139 85.0807 102.659 71.9382 118.284 66.1341C133.896 60.3343 154.582 61.8973 174.396 75.5211C194.213 89.1464 213.198 114.873 225.235 157.441L227.178 156.973C217.676 109.358 249.194 86.6176 269.017 89.7342C273.963 90.5118 278.179 92.8778 280.953 96.8264C283.73 100.779 285.138 106.43 284.243 113.912C282.449 128.921 271.41 151.044 244.277 180.592L245.615 182.067C276.131 159.086 301.561 153.168 320.325 156.72C339.067 160.269 351.342 173.293 355.596 188.65C358.227 198.148 359.58 209.809 358.763 221.039C357.945 232.283 354.962 242.985 349.024 250.667C343.128 258.295 334.257 263.03 321.401 262.296C308.479 261.558 291.495 255.287 269.521 240.732Z" stroke="#F7EBEC" stroke-opacity="0.5" stroke-width="2"/>
</svg>
