<svg width="48" height="49" viewBox="0 0 48 49" fill="none" xmlns="http://www.w3.org/2000/svg">
<g clip-path="url(#clip0_1_254)">
<path d="M36.75 0.5H11.25C5.0368 0.5 0 5.5368 0 11.75V37.25C0 43.4632 5.0368 48.5 11.25 48.5H36.75C42.9632 48.5 48 43.4632 48 37.25V11.75C48 5.5368 42.9632 0.5 36.75 0.5Z" fill="#0277BD"/>
<path d="M10.0786 19.7471L10.6154 25.7362H24.018V19.7471H10.0786Z" fill="#EBEBEB"/>
<path d="M24.0178 7.625H23.9972H9L9.54442 13.6142H24.0178V7.625Z" fill="#EBEBEB"/>
<path d="M24.0179 41.5327V35.3015L23.9917 35.3084L17.3216 33.5075L16.8952 28.7307H13.654H10.8831L11.7221 38.1346L23.9903 41.5404L24.0179 41.5327Z" fill="#EBEBEB"/>
<path d="M31.372 25.7362L30.6768 33.5036L23.9971 35.3066V41.5374L36.2751 38.1346L36.3651 37.1227L37.7725 21.3554L37.9186 19.7471L38.9999 7.625H23.9971V13.6142H32.4363L31.8914 19.7471H23.9971V25.7362H31.372Z" fill="white"/>
</g>
<defs>
<clipPath id="clip0_1_254">
<rect width="48" height="48" fill="white" transform="translate(0 0.5)"/>
</clipPath>
</defs>
</svg>
