<svg width="24" height="25" viewBox="0 0 24 25" fill="none" xmlns="http://www.w3.org/2000/svg">
<g clip-path="url(#clip0_1_238)">
<path d="M22.6627 1.8031C21.7822 0.922572 20.7227 0.48291 19.483 0.48291H4.48283C3.24313 0.48291 2.18362 0.922572 1.3031 1.8031C0.422572 2.68362 -0.0170898 3.74313 -0.0170898 4.98283V19.983C-0.0170898 21.2227 0.422572 22.2822 1.3031 23.1627C2.18362 24.0432 3.24313 24.4829 4.48283 24.4829H7.98331C8.21155 24.4829 8.38333 24.4745 8.49865 24.4589C8.63282 24.432 8.75393 24.3604 8.84221 24.2559C8.95633 24.1357 9.01399 23.9616 9.01399 23.7333L9.00558 22.6702C9.00078 21.9927 8.99838 21.4569 8.99838 21.0605L8.638 21.123C8.40976 21.165 8.12146 21.183 7.77189 21.1782C7.40753 21.1715 7.04434 21.135 6.68595 21.0689C6.30443 20.9985 5.94528 20.8379 5.63845 20.6004C5.3171 20.3573 5.07743 20.0221 4.95133 19.6394L4.79516 19.279C4.66354 18.9948 4.49818 18.7274 4.30265 18.4826C4.07921 18.1907 3.85217 17.9937 3.62273 17.8892L3.51462 17.8111C3.43923 17.7571 3.37066 17.6942 3.3104 17.6237C3.25285 17.5583 3.20547 17.4846 3.16986 17.4051C3.13862 17.3318 3.16505 17.2717 3.24794 17.2249C3.33203 17.1768 3.48218 17.154 3.70202 17.154L4.01434 17.2021C4.22216 17.2429 4.48043 17.3678 4.78675 17.5757C5.09675 17.787 5.35571 18.0648 5.54475 18.3889C5.785 18.8154 6.07331 19.1409 6.41206 19.3655C6.75082 19.589 7.09197 19.7019 7.43554 19.7019C7.7791 19.7019 8.07581 19.6755 8.32687 19.6238C8.56966 19.5736 8.80558 19.4946 9.02961 19.3884C9.12331 18.6916 9.37797 18.1535 9.79481 17.7787C9.2547 17.7257 8.71939 17.6317 8.19353 17.4976C7.68034 17.3566 7.1868 17.152 6.72439 16.8885C6.24057 16.6251 5.81324 16.2692 5.46667 15.841C5.13392 15.4242 4.86003 14.8776 4.64621 14.2013C4.43358 13.5238 4.32667 12.7418 4.32667 11.8565C4.32667 10.5963 4.7375 9.5236 5.56037 8.63707C5.17596 7.69048 5.212 6.62736 5.66968 5.45133C5.9724 5.35643 6.42047 5.4273 7.01389 5.66155C7.60732 5.89579 8.04217 6.0964 8.31846 6.26218C8.59475 6.43035 8.81578 6.5709 8.98276 6.68502C9.95936 6.41324 10.9686 6.27663 11.9823 6.279C13.0142 6.279 14.0136 6.41474 14.9831 6.68502L15.5765 6.31023C16.0329 6.03616 16.5144 5.80609 17.0144 5.62311C17.567 5.41409 17.9874 5.35763 18.2805 5.45133C18.749 6.62856 18.7899 7.69048 18.4043 8.63827C19.2271 9.5236 19.6391 10.5963 19.6391 11.8577C19.6391 12.743 19.5322 13.5274 19.3184 14.2085C19.1058 14.8908 18.8295 15.4374 18.4907 15.8494C18.1381 16.2721 17.7089 16.6247 17.2258 16.8885C16.7213 17.1696 16.2312 17.3726 15.7567 17.4976C15.2309 17.6322 14.6955 17.7266 14.1554 17.7799C14.696 18.2484 14.9674 18.9871 14.9674 19.9974V23.7333C14.9674 23.9099 14.9927 24.0529 15.0455 24.1622C15.0698 24.2148 15.1045 24.2621 15.1474 24.3011C15.1903 24.3401 15.2406 24.3701 15.2954 24.3892C15.4107 24.4301 15.5116 24.4565 15.6005 24.4661C15.6894 24.4781 15.8167 24.4817 15.9825 24.4817H19.483C20.7227 24.4817 21.7822 24.042 22.6627 23.1615C23.542 22.2822 23.9829 21.2215 23.9829 19.9818V4.98283C23.9829 3.74313 23.5432 2.68362 22.6627 1.8031Z" fill="#F7EBEC"/>
</g>
<defs>
<clipPath id="clip0_1_238">
<rect width="24" height="24" fill="white" transform="translate(0 0.5)"/>
</clipPath>
</defs>
</svg>
