<svg width="48" height="49" viewBox="0 0 48 49" fill="none" xmlns="http://www.w3.org/2000/svg">
<g clip-path="url(#clip0_1_248)">
<path d="M36.75 0.5H11.25C5.0368 0.5 0 5.5368 0 11.75V37.25C0 43.4632 5.0368 48.5 11.25 48.5H36.75C42.9632 48.5 48 43.4632 48 37.25V11.75C48 5.5368 42.9632 0.5 36.75 0.5Z" fill="#E14E1D"/>
<path d="M9 7.625L10.6143 25.7362H31.3725L30.6759 33.5043L23.9923 35.3114L17.3212 33.5069L16.8752 28.5191H10.8635L11.7232 38.1343L23.9908 41.5415L36.2739 38.1343L37.9208 19.7478H16.092L15.5439 13.6147H38.4452H38.4636L39 7.625H9Z" fill="white"/>
<path d="M24 7.625H9L10.6143 25.7362H24V19.7478H16.092L15.5439 13.6146H24V7.625Z" fill="#EBEBEB"/>
<path d="M24 35.3088L23.9923 35.3114L17.3212 33.5069L16.8752 28.5191H10.8635L11.7232 38.1342L23.9908 41.5415L24 41.5389V35.3088Z" fill="#EBEBEB"/>
</g>
<defs>
<clipPath id="clip0_1_248">
<rect width="48" height="48" fill="white" transform="translate(0 0.5)"/>
</clipPath>
</defs>
</svg>
