<svg width="48" height="49" viewBox="0 0 48 49" fill="none" xmlns="http://www.w3.org/2000/svg">
<g clip-path="url(#clip0_1_261)">
<path d="M36.75 0.5H11.25C5.0368 0.5 0 5.5368 0 11.75V37.25C0 43.4632 5.0368 48.5 11.25 48.5H36.75C42.9632 48.5 48 43.4632 48 37.25V11.75C48 5.5368 42.9632 0.5 36.75 0.5Z" fill="#F0DB4F"/>
<path d="M12.6209 40.6122L16.2942 38.3892C17.0029 39.6457 17.6475 40.7088 19.1938 40.7088C20.676 40.7088 21.6105 40.1291 21.6105 37.8738V22.5367H26.1214V37.9376C26.1214 42.6095 23.3827 44.7361 19.3871 44.7361C15.7787 44.7361 13.6841 42.8673 12.6208 40.6119" fill="#323330"/>
<path d="M28.5715 40.1289L32.2443 38.0024C33.2112 39.5814 34.4678 40.7412 36.6908 40.7412C38.56 40.7412 39.7518 39.8067 39.7518 38.5179C39.7518 36.9714 38.5274 36.4235 36.4653 35.5216L35.3378 35.0381C32.0834 33.6528 29.9245 31.9128 29.9245 28.2397C29.9245 24.8564 32.5023 22.2787 36.53 22.2787C39.3976 22.2787 41.4597 23.2777 42.9417 25.8875L39.4297 28.1429C38.6562 26.7575 37.8188 26.2098 36.53 26.2098C35.2088 26.2098 34.3711 27.0476 34.3711 28.1429C34.3711 29.4961 35.2088 30.044 37.142 30.8819L38.2696 31.3651C42.1038 33.0086 44.2627 34.6837 44.2627 38.4534C44.2627 42.5135 41.0729 44.7365 36.7876 44.7365C32.599 44.7365 29.8925 42.7389 28.5715 40.1289Z" fill="#323330"/>
</g>
<defs>
<clipPath id="clip0_1_261">
<rect width="48" height="48" fill="white" transform="translate(0 0.5)"/>
</clipPath>
</defs>
</svg>
