<svg width="24" height="25" viewBox="0 0 24 25" fill="none" xmlns="http://www.w3.org/2000/svg">
<g clip-path="url(#clip0_1_240)">
<path d="M4.70544 0.506012C2.12023 0.506012 0.00439453 2.6218 0.00439453 5.20706V19.7952C0.00439453 22.3805 2.12019 24.4955 4.70544 24.4955H19.2936C21.8789 24.4955 23.9939 22.3805 23.9939 19.7952V5.20706C23.9939 2.62185 21.8789 0.506012 19.2936 0.506012H4.70544ZM5.88783 4.46476C7.12738 4.46476 7.89089 5.27851 7.91446 6.34816C7.91446 7.3942 7.12733 8.23082 5.86385 8.23082H5.84059C4.62463 8.23082 3.83871 7.39425 3.83871 6.34816C3.83871 5.27853 4.64844 4.46476 5.88783 4.46476ZM16.5697 9.4642C18.9536 9.4642 20.7407 11.0223 20.7407 14.3707V20.6214H17.1178V14.7898C17.1178 13.3243 16.5935 12.3245 15.2824 12.3245C14.2815 12.3245 13.6849 12.9984 13.423 13.6494C13.3273 13.8823 13.3038 14.2075 13.3038 14.5333V20.6214H9.68091C9.68091 20.6214 9.72845 10.7427 9.68091 9.71985H13.3045V11.2636C13.786 10.5208 14.6471 9.4642 16.5697 9.4642ZM4.0524 9.72064H7.67527V20.6215H4.0524V9.72064Z" fill="#F7EBEC"/>
</g>
<defs>
<clipPath id="clip0_1_240">
<rect width="24" height="24" fill="white" transform="translate(0 0.5)"/>
</clipPath>
</defs>
</svg>
