<svg width="72" height="17" viewBox="0 0 72 17" fill="none" xmlns="http://www.w3.org/2000/svg">
<path d="M4.86054 12.7433H3.31473L0 4.01026H1.41832L3.29879 9.18952C3.73438 10.4325 3.98405 11.2187 4.04779 11.5481H4.11154C4.16466 11.2718 4.34261 10.7061 4.6454 9.85087C4.94819 8.99031 5.65203 7.04344 6.75694 4.01026H8.17526L4.86054 12.7433ZM13.7051 3.8509C14.7675 3.8509 15.5617 4.10853 16.0876 4.6238C16.6135 5.13907 16.8764 5.9465 16.8764 7.0461V12.7433H15.5537V7.09391C15.5537 6.37678 15.389 5.84557 15.0597 5.50029C14.7357 5.15501 14.231 4.98236 13.5458 4.98236C12.6268 4.98236 11.9548 5.22938 11.5298 5.7234C11.1102 6.21742 10.9004 7.03016 10.9004 8.16163V12.7433H9.57765V4.01026H10.6533L10.8685 5.20547H10.9322C11.2031 4.77519 11.5803 4.44319 12.0637 4.20946C12.5524 3.97042 13.0995 3.8509 13.7051 3.8509ZM22.1513 11.3568H23.6971C24.6427 11.3568 25.3678 11.556 25.8724 11.9544C26.3824 12.3528 26.6373 12.9319 26.6373 13.6915C26.6373 14.6583 26.2496 15.394 25.474 15.8987C24.6984 16.4086 23.567 16.6636 22.0796 16.6636C20.9375 16.6636 20.0557 16.4511 19.4342 16.0261C18.818 15.6012 18.5099 15.0009 18.5099 14.2254C18.5099 13.6941 18.6799 13.2347 19.0198 12.8469C19.3651 12.4591 19.8432 12.1961 20.4541 12.058C20.2204 11.9518 20.0291 11.7924 19.8804 11.5799C19.737 11.3675 19.6653 11.1151 19.6653 10.823C19.6653 10.5255 19.7476 10.2572 19.9123 10.0182C20.0822 9.77384 20.3532 9.54011 20.725 9.31701C20.2788 9.1364 19.9096 8.82033 19.6174 8.3688C19.3359 7.91728 19.1951 7.40732 19.1951 6.83893C19.1951 5.88807 19.482 5.15235 20.0557 4.63177C20.6294 4.11119 21.4421 3.8509 22.4939 3.8509C22.9401 3.8509 23.3518 3.90402 23.729 4.01026H26.7489V4.85487L25.1314 5.03814C25.5138 5.52154 25.7051 6.10321 25.7051 6.78315C25.7051 7.63839 25.4129 8.32099 24.8286 8.83095C24.2442 9.34091 23.4421 9.59589 22.4222 9.59589C22.1779 9.59589 21.9335 9.57464 21.6891 9.53214C21.1261 9.82431 20.8445 10.1988 20.8445 10.6556C20.8445 10.9 20.9455 11.078 21.1473 11.1895C21.3492 11.3011 21.6838 11.3568 22.1513 11.3568ZM22.4381 4.823C21.8113 4.823 21.3306 4.99033 20.9959 5.32499C20.6666 5.65965 20.5019 6.14305 20.5019 6.77518C20.5019 7.40201 20.6719 7.87478 21.0119 8.19351C21.3571 8.50692 21.8405 8.66362 22.4621 8.66362C23.7529 8.66362 24.3983 8.0368 24.3983 6.78315C24.3983 5.47639 23.7449 4.823 22.4381 4.823ZM23.2748 12.5441H21.6891C21.0836 12.5441 20.6135 12.6875 20.2788 12.9744C19.9494 13.2612 19.7848 13.657 19.7848 14.1616C19.7848 15.155 20.555 15.6516 22.0955 15.6516C23.1845 15.6516 23.9999 15.4896 24.5417 15.1656C25.0889 14.8416 25.3624 14.3874 25.3624 13.803C25.3624 13.325 25.2164 12.9956 24.9242 12.815C24.632 12.6344 24.0822 12.5441 23.2748 12.5441ZM32.2309 12.9026C30.9401 12.9026 29.9202 12.5096 29.1712 11.7234C28.4275 10.9319 28.0557 9.83493 28.0557 8.43255C28.0557 7.03016 28.4009 5.91729 29.0915 5.09392C29.7874 4.26524 30.7011 3.8509 31.8325 3.8509C32.9693 3.8509 33.8538 4.21477 34.4859 4.94252C35.1234 5.64903 35.4421 6.59457 35.4421 7.77916V8.61581H29.4262C29.4527 9.63573 29.7104 10.4139 30.1991 10.9505C30.6878 11.4817 31.3916 11.7473 32.3106 11.7473C33.2296 11.7473 34.1459 11.5507 35.0596 11.1576V12.3369C34.5975 12.5388 34.1539 12.6822 33.7289 12.7672C33.3093 12.8575 32.8099 12.9026 32.2309 12.9026ZM34.0238 7.54012C34.0238 6.71144 33.8378 6.07665 33.466 5.63575C33.0941 5.18953 32.5603 4.96643 31.8644 4.96643C31.1738 4.96643 30.6187 5.19219 30.1991 5.64372C29.7794 6.09524 29.5324 6.72738 29.458 7.54012H34.0238ZM39.0277 12.7433H37.705V0.344934H39.0277V12.7433ZM41.6412 11.9146C41.6412 11.5534 41.7209 11.2798 41.8803 11.0939C42.045 10.908 42.2787 10.815 42.5815 10.815C42.8896 10.815 43.1286 10.908 43.2986 11.0939C43.4739 11.2798 43.5616 11.5481 43.5616 11.8987C43.5616 12.244 43.4739 12.5096 43.2986 12.6955C43.1286 12.8814 42.8949 12.9744 42.5974 12.9744C42.2999 12.9744 42.0662 12.8867 41.8962 12.7114C41.7262 12.5361 41.6412 12.2705 41.6412 11.9146ZM47.5058 12.7433H46.1831V0.344934H47.5058V12.7433ZM50.199 1.64373C50.199 1.35157 50.2707 1.13378 50.4141 0.99035C50.5575 0.841612 50.7435 0.767243 50.9719 0.767243C51.2003 0.767243 51.3889 0.841612 51.5376 0.99035C51.6864 1.13909 51.7607 1.35688 51.7607 1.64373C51.7607 1.93058 51.6864 2.15104 51.5376 2.30509C51.3889 2.45382 51.2003 2.52819 50.9719 2.52819C50.7435 2.52819 50.5575 2.45382 50.4141 2.30509C50.2707 2.15104 50.199 1.93058 50.199 1.64373ZM51.6332 12.7433H50.3105V4.01026H51.6332V12.7433ZM58.5655 3.8509C59.6279 3.8509 60.422 4.10853 60.9479 4.6238C61.4738 5.13907 61.7368 5.9465 61.7368 7.0461V12.7433H60.4141V7.09391C60.4141 6.37678 60.2494 5.84557 59.9201 5.50029C59.596 5.15501 59.0914 4.98236 58.4061 4.98236C57.4871 4.98236 56.8152 5.22938 56.3902 5.7234C55.9705 6.21742 55.7607 7.03016 55.7607 8.16163V12.7433H54.438V4.01026H55.5137L55.7288 5.20547H55.7926C56.0635 4.77519 56.4407 4.44319 56.9241 4.20946C57.4128 3.97042 57.9599 3.8509 58.5655 3.8509ZM68.1511 12.9026C66.8603 12.9026 65.8403 12.5096 65.0913 11.7234C64.3477 10.9319 63.9758 9.83493 63.9758 8.43255C63.9758 7.03016 64.3211 5.91729 65.0117 5.09392C65.7075 4.26524 66.6212 3.8509 67.7527 3.8509C68.8895 3.8509 69.7739 4.21477 70.4061 4.94252C71.0435 5.64903 71.3622 6.59457 71.3622 7.77916V8.61581H65.3463C65.3729 9.63573 65.6305 10.4139 66.1192 10.9505C66.6079 11.4817 67.3118 11.7473 68.2308 11.7473C69.1498 11.7473 70.0661 11.5507 70.9798 11.1576V12.3369C70.5176 12.5388 70.0741 12.6822 69.6491 12.7672C69.2294 12.8575 68.7301 12.9026 68.1511 12.9026ZM69.9439 7.54012C69.9439 6.71144 69.758 6.07665 69.3861 5.63575C69.0143 5.18953 68.4804 4.96643 67.7846 4.96643C67.094 4.96643 66.5389 5.19219 66.1192 5.64372C65.6996 6.09524 65.4526 6.72738 65.3782 7.54012H69.9439Z" fill="#F7EBEC"/>
</svg>
