<svg width="72" height="17" viewBox="0 0 72 17" fill="none" xmlns="http://www.w3.org/2000/svg">
<path d="M8.14661 4.59259C8.29034 5.02379 8.36221 5.59873 8.36221 6.31739C8.36221 7.02579 8.27494 7.70853 8.10041 8.3656C7.92587 9.02266 7.65894 9.64893 7.29961 10.2444C6.95054 10.8296 6.45774 11.307 5.82121 11.6766C5.19494 12.0359 4.47114 12.2156 3.6498 12.2156C2.36647 12.2156 1.4784 11.9538 0.985601 11.4302C0.657067 11.0811 0.4928 10.5473 0.4928 9.8286C0.4928 9.4898 0.533867 9.1048 0.616001 8.6736L1.3398 4.59259H3.9578L3.234 8.689C3.2032 8.843 3.1878 8.9816 3.1878 9.1048C3.1878 9.69 3.49067 9.9826 4.0964 9.9826C5.16414 9.9826 5.69801 8.86353 5.69801 6.62539C5.69801 6.10179 5.65694 5.52173 5.57481 4.88519L5.52861 4.59259H8.14661ZM14.1857 7.2722C14.1857 6.83073 13.9701 6.60999 13.5389 6.60999C13.118 6.60999 12.7689 6.76913 12.4917 7.0874L11.6293 12H9.0113L10.3203 4.59259H12.7535L12.5841 5.50119C13.1898 4.75173 13.9547 4.37699 14.8787 4.37699C15.8027 4.37699 16.4033 4.60286 16.6805 5.05459C16.855 5.34206 16.9423 5.67059 16.9423 6.04019C16.9423 6.40979 16.9166 6.75373 16.8653 7.07199L16.4495 9.4436C16.4392 9.5052 16.4341 9.56166 16.4341 9.613C16.4341 9.8902 16.5881 10.0288 16.8961 10.0288C17.1322 10.0288 17.3427 9.97746 17.5275 9.8748L17.4505 11.615C16.968 12.0154 16.4187 12.2156 15.8027 12.2156C14.4064 12.2156 13.7083 11.6304 13.7083 10.46C13.7083 10.2547 13.7288 10.0339 13.7699 9.7978L14.1395 7.7496C14.1703 7.5648 14.1857 7.40566 14.1857 7.2722ZM25.2068 12.2464C24.981 13.5503 24.4625 14.5821 23.6514 15.3418C22.8506 16.1015 21.9317 16.4814 20.8948 16.4814C19.8579 16.4814 19.1084 16.2915 18.6464 15.9116C18.1947 15.5317 17.9688 15.0338 17.9688 14.4178C17.9688 13.5143 18.5437 12.7289 19.6936 12.0616C18.8209 11.7844 18.3846 11.1222 18.3846 10.075C18.3846 9.81833 18.4103 9.536 18.4616 9.228L18.7696 7.4262C18.9339 6.50219 19.3137 5.76813 19.9092 5.22399C20.5047 4.66959 21.2747 4.39239 22.2192 4.39239C23.174 4.39239 23.8259 4.62339 24.175 5.08539L24.2674 4.59259H26.562L25.2068 12.2464ZM21.1412 8.8892C21.1207 8.9816 21.1104 9.10993 21.1104 9.2742C21.1104 9.43846 21.1874 9.60273 21.3414 9.767C21.4954 9.921 21.7521 9.998 22.1114 9.998C22.481 9.998 22.7993 9.85426 23.0662 9.5668L23.5282 6.9796C23.3845 6.72293 23.1124 6.59459 22.712 6.59459C22.3116 6.59459 21.9985 6.69726 21.7726 6.90259C21.5467 7.10793 21.403 7.38513 21.3414 7.7342L21.1412 8.8892ZM21.249 14.2792C21.9163 14.2792 22.3527 13.6735 22.558 12.462L22.712 11.5688C21.2849 12.2361 20.5714 12.9086 20.5714 13.5862C20.5714 13.7915 20.6279 13.9558 20.7408 14.079C20.864 14.2125 21.0334 14.2792 21.249 14.2792ZM30.1139 12.2156C27.9784 12.2156 26.9107 11.4764 26.9107 9.998C26.9107 9.79266 26.9312 9.57193 26.9723 9.3358L27.2957 7.4262C27.4702 6.44059 27.922 5.68599 28.6509 5.16239C29.3901 4.62853 30.3654 4.36159 31.5769 4.36159C33.6405 4.36159 34.6723 5.14186 34.6723 6.70239C34.6723 6.92826 34.6518 7.17466 34.6107 7.4416L34.4259 8.535H29.7289L29.6673 8.8892C29.6468 9.0124 29.6365 9.12533 29.6365 9.228C29.6365 9.79266 29.9702 10.075 30.6375 10.075C30.8839 10.075 31.0944 9.998 31.2689 9.844C31.4434 9.69 31.5461 9.51033 31.5769 9.305L34.1333 9.3358C33.7945 11.2557 32.4547 12.2156 30.1139 12.2156ZM31.9619 7.5956C32.003 7.42106 32.0235 7.26193 32.0235 7.1182C32.0235 6.96419 31.9568 6.81019 31.8233 6.65619C31.6898 6.50219 31.4742 6.42519 31.1765 6.42519C30.889 6.42519 30.6221 6.52273 30.3757 6.71779C30.1396 6.91286 29.9753 7.20546 29.8829 7.5956H31.9619ZM38.3646 9.6284C38.3646 9.89533 38.498 10.0288 38.765 10.0288C39.0422 10.0288 39.2732 9.97746 39.458 9.8748L39.381 11.615C38.8882 12.0154 38.3338 12.2156 37.7178 12.2156C36.7835 12.2156 36.1778 12 35.9006 11.5688C35.726 11.2916 35.6388 10.9887 35.6388 10.6602C35.6388 10.3317 35.6593 10.0442 35.7004 9.7978L37.379 0.311388H39.997L38.38 9.4436C38.3697 9.5052 38.3646 9.5668 38.3646 9.6284ZM40.1561 11.1068C40.1561 10.4497 40.2999 9.97233 40.5873 9.6746C40.8748 9.3666 41.3317 9.2126 41.9579 9.2126C42.8203 9.2126 43.2515 9.59246 43.2515 10.3522C43.2515 10.999 43.1027 11.4713 42.8049 11.769C42.5175 12.0667 42.0606 12.2156 41.4343 12.2156C40.5822 12.2156 40.1561 11.846 40.1561 11.1068ZM47.6587 9.6284C47.6587 9.89533 47.7922 10.0288 48.0591 10.0288C48.3363 10.0288 48.5673 9.97746 48.7521 9.8748L48.6751 11.615C48.1823 12.0154 47.6279 12.2156 47.0119 12.2156C46.0776 12.2156 45.4719 12 45.1947 11.5688C45.0202 11.2916 44.9329 10.9887 44.9329 10.6602C44.9329 10.3317 44.9534 10.0442 44.9945 9.7978L46.6731 0.311388H49.2911L47.6741 9.4436C47.6638 9.5052 47.6587 9.5668 47.6587 9.6284ZM52.9615 10.0288C53.1976 10.0288 53.4081 9.97746 53.5929 9.8748L53.5159 11.615C53.0334 12.0154 52.4841 12.2156 51.8681 12.2156C50.9338 12.2156 50.3281 12 50.0509 11.5688C49.8661 11.2813 49.7737 10.9785 49.7737 10.6602C49.7737 10.3317 49.7942 10.0442 49.8353 9.7978L50.7593 4.59259H53.3773L52.5149 9.4436C52.5046 9.5052 52.4995 9.56166 52.4995 9.613C52.4995 9.8902 52.6535 10.0288 52.9615 10.0288ZM51.0673 2.08239C51.0673 1.42532 51.211 0.947922 51.4985 0.650188C51.7962 0.342188 52.2531 0.188188 52.8691 0.188188C53.7315 0.188188 54.1627 0.568055 54.1627 1.32779C54.1627 1.97459 54.0138 2.44686 53.7161 2.74459C53.4286 3.04232 52.9718 3.19119 52.3455 3.19119C51.4934 3.19119 51.0673 2.82159 51.0673 2.08239ZM59.4984 7.2722C59.4984 6.83073 59.2828 6.60999 58.8516 6.60999C58.4307 6.60999 58.0816 6.76913 57.8044 7.0874L56.942 12H54.324L55.633 4.59259H58.0662L57.8968 5.50119C58.5026 4.75173 59.2674 4.37699 60.1914 4.37699C61.1154 4.37699 61.716 4.60286 61.9932 5.05459C62.1678 5.34206 62.255 5.67059 62.255 6.04019C62.255 6.40979 62.2294 6.75373 62.178 7.07199L61.7622 9.4436C61.752 9.5052 61.7468 9.56166 61.7468 9.613C61.7468 9.8902 61.9008 10.0288 62.2088 10.0288C62.445 10.0288 62.6554 9.97746 62.8402 9.8748L62.7632 11.615C62.2807 12.0154 61.7314 12.2156 61.1154 12.2156C59.7192 12.2156 59.021 11.6304 59.021 10.46C59.021 10.2547 59.0416 10.0339 59.0826 9.7978L59.4522 7.7496C59.483 7.5648 59.4984 7.40566 59.4984 7.2722ZM66.8544 12.2156C64.7189 12.2156 63.6512 11.4764 63.6512 9.998C63.6512 9.79266 63.6717 9.57193 63.7128 9.3358L64.0362 7.4262C64.2107 6.44059 64.6624 5.68599 65.3914 5.16239C66.1306 4.62853 67.1059 4.36159 68.3174 4.36159C70.381 4.36159 71.4128 5.14186 71.4128 6.70239C71.4128 6.92826 71.3922 7.17466 71.3512 7.4416L71.1664 8.535H66.4694L66.4078 8.8892C66.3872 9.0124 66.377 9.12533 66.377 9.228C66.377 9.79266 66.7106 10.075 67.378 10.075C67.6244 10.075 67.8348 9.998 68.0094 9.844C68.1839 9.69 68.2866 9.51033 68.3174 9.305L70.8738 9.3358C70.535 11.2557 69.1952 12.2156 66.8544 12.2156ZM68.7024 7.5956C68.7434 7.42106 68.764 7.26193 68.764 7.1182C68.764 6.96419 68.6972 6.81019 68.5638 6.65619C68.4303 6.50219 68.2147 6.42519 67.917 6.42519C67.6295 6.42519 67.3626 6.52273 67.1162 6.71779C66.88 6.91286 66.7158 7.20546 66.6234 7.5956H68.7024Z" fill="#F7EBEC"/>
</svg>
