<svg width="72" height="13" viewBox="0 0 72 13" fill="none" xmlns="http://www.w3.org/2000/svg">
<path d="M2.2066 8.00875H1.31242V6.22039H0.403823V3.39363H1.47107V6.06175H2.35082V7.8501H3.245V9.63846H3.98054V7.8501H4.87472V6.06175H5.7689V3.39363H6.8073V6.22039H5.91312V8.00875H5.03336V9.78268H4.13918V11.5855H3.08636V9.78268H2.2066V8.00875ZM7.61494 3.39363H8.68219V4.28781H9.41772V3.39363H12.2445V4.28781H13.1242V5.16757H14.0184V11.5855H12.98V5.32621H12.0858V4.43203H9.56194V5.32621H8.68219V11.5855H7.61494V3.39363ZM14.8261 9.63846H15.7347V8.8885H14.8261V7.8501H15.7347V7.11457H14.8261V4.28781H15.7347V3.39363H19.4556V4.28781H20.1911V3.39363H21.2295V4.43203H20.3354V7.11457H19.4556V8.00875H15.8933V8.74428H20.3354V9.63846H21.2295V11.5855H20.3354V12.4796H15.7347V11.5855H14.8261V9.63846ZM19.297 6.95592V4.43203H15.8933V6.95592H19.297ZM20.1911 11.4124V9.78268H15.8933V11.4124H20.1911ZM22.9458 9.78268H22.0372V5.16757H22.9458V4.28781H23.84V3.39363H26.6667V4.28781H27.5465V5.16757H28.4407V8.00875H23.1044V9.63846H23.9842V10.5182H26.5081V9.63846H27.4023V8.74428H28.4407V9.78268H27.5465V10.6769H26.6667V11.5855H23.84V10.6769H22.9458V9.78268ZM27.4023 6.95592V5.32621H26.5081V4.43203H23.9842V5.32621H23.1044V6.95592H27.4023ZM31.9164 0.711095H32.9692V11.5855H31.9164V0.711095ZM36.9642 8.74428H38.8968V10.6769H36.9642V8.74428ZM46.3387 0.711095H47.3915V11.5855H46.3387V0.711095ZM53.5498 0.711095H54.6026V2.6581H53.5498V0.711095ZM53.5498 3.39363H54.6026V11.5855H53.5498V3.39363ZM58.0928 3.39363H59.16V4.28781H59.8956V3.39363H62.7223V4.28781H63.6021V5.16757H64.4963V11.5855H63.4578V5.32621H62.5637V4.43203H60.0398V5.32621H59.16V11.5855H58.0928V3.39363ZM66.2125 9.78268H65.3039V5.16757H66.2125V4.28781H67.1067V3.39363H69.9334V4.28781H70.8132V5.16757H71.7074V8.00875H66.3711V9.63846H67.2509V10.5182H69.7748V9.63846H70.669V8.74428H71.7074V9.78268H70.8132V10.6769H69.9334V11.5855H67.1067V10.6769H66.2125V9.78268ZM70.669 6.95592V5.32621H69.7748V4.43203H67.2509V5.32621H66.3711V6.95592H70.669Z" fill="#F7EBEC"/>
</svg>
