<svg width="73" height="21" viewBox="0 0 73 21" fill="none" xmlns="http://www.w3.org/2000/svg">
<path d="M9.84696 7.39701C9.84696 8.67867 8.93066 10.6795 7.09805 13.3994C6.99366 13.5502 6.88927 13.7067 6.78489 13.8691C6.6863 14.0257 6.59641 14.1504 6.51521 14.2432C6.43982 14.336 6.35573 14.4172 6.26294 14.4868C6.17015 14.5505 6.06286 14.623 5.94108 14.7042C5.81929 14.7796 5.6917 14.8579 5.55832 14.9391C5.43073 15.0145 5.31184 15.087 5.20165 15.1566C4.93488 15.3364 4.7986 15.4379 4.7928 15.4611C4.55502 14.4868 4.30855 13.5212 4.05338 12.5643C3.7982 11.6016 3.56043 10.8476 3.34005 10.3025C3.11967 9.75156 2.96309 9.3659 2.8703 9.14552C2.78331 8.92515 2.67602 8.71347 2.54844 8.51049C2.25267 8.02334 1.9192 7.77977 1.54804 7.77977C1.34506 7.77977 1.11019 7.85806 0.843417 8.01464C1.66113 7.05194 2.48174 6.5706 3.30526 6.5706C3.91419 6.5706 4.56662 7.65218 5.26255 9.81535C5.55252 10.7201 5.77289 11.474 5.92368 12.0771C6.08026 12.6744 6.18755 13.0862 6.24554 13.3124C7.06906 12.0191 7.64319 10.8244 7.96796 9.72836C8.09555 9.305 8.15934 8.91355 8.15934 8.55398C8.15934 8.02624 7.95636 7.76237 7.5504 7.76237C7.40542 7.76237 7.23434 7.79716 7.03716 7.86676C7.23434 7.79137 7.40832 7.68408 7.5591 7.54489C7.70989 7.39991 7.86067 7.25782 8.01146 7.11864C8.39421 6.76487 8.79437 6.58799 9.21193 6.58799C9.63528 6.58799 9.84696 6.85766 9.84696 7.39701ZM11.9608 14.4085L11.9695 8.81496C11.9695 8.4264 11.9173 8.16543 11.813 8.03204C11.6332 7.80006 11.3838 7.68408 11.0648 7.68408C10.7459 7.68408 10.4617 7.73047 10.2123 7.82326C10.3631 7.76527 10.5603 7.62898 10.8039 7.41441C11.2504 7.00265 11.5665 6.76197 11.7521 6.69238C12.1 6.5532 12.4045 6.4836 12.6655 6.4836C12.9322 6.4836 13.1294 6.5271 13.257 6.61409C13.3904 6.70108 13.4861 6.81707 13.5441 6.96205C13.6195 7.14183 13.6572 7.484 13.6572 7.98854C14.7416 7.03165 15.7565 6.5532 16.7018 6.5532C17.218 6.5532 17.6674 6.71558 18.0502 7.04035C18.4503 7.38831 18.6504 7.81166 18.6504 8.31041V12.6078C18.6504 13.0369 18.6968 13.3327 18.7896 13.4951C18.9636 13.8024 19.2536 13.9561 19.6595 13.9561C19.8915 13.9561 20.1119 13.9126 20.3206 13.8256C19.8045 14.2722 19.4478 14.5592 19.2507 14.6868C18.7983 14.9826 18.4011 15.1305 18.0589 15.1305C17.7225 15.1305 17.4819 15.0696 17.3369 14.9478C17.1977 14.826 17.0991 14.6723 17.0411 14.4868C16.9773 14.2838 16.9454 13.8691 16.9454 13.2428V9.98933C16.9454 8.95124 16.6061 8.26691 15.9276 7.93635C15.684 7.82036 15.3912 7.76237 15.049 7.76237C14.2081 7.76237 13.7528 8.3858 13.6833 9.63267C13.6659 9.94584 13.6572 10.2271 13.6572 10.4765V13.1645C13.6572 13.5357 13.7702 13.7879 13.9964 13.9213C14.0776 13.9735 14.1791 13.9996 14.3009 13.9996C14.4227 13.9996 14.5503 13.9706 14.6836 13.9126C14.5619 14.017 14.4169 14.1417 14.2487 14.2867C14.0805 14.4317 13.9036 14.5708 13.718 14.7042C13.2599 15.0174 12.8945 15.174 12.622 15.174C12.1812 15.174 11.9608 14.9188 11.9608 14.4085ZM28.4717 6.5445C28.7848 6.5445 29.04 6.4836 29.2372 6.36182C29.2256 6.559 28.9994 6.80257 28.5587 7.09254C28.1933 7.33611 27.8801 7.4898 27.6192 7.55359C27.8395 7.97695 27.9497 8.438 27.9497 8.93674C27.9497 9.43549 27.8511 9.87914 27.654 10.2677C27.4626 10.6563 27.219 10.9984 26.9232 11.2942C26.6333 11.59 26.3172 11.848 25.975 12.0684C25.6329 12.2888 25.3139 12.4889 25.0181 12.6686C24.7282 12.8484 24.4846 13.0166 24.2874 13.1732C24.096 13.3298 24.0004 13.4864 24.0004 13.6429C24.0004 13.7937 24.0323 13.9242 24.096 14.0344C24.1656 14.1446 24.2526 14.2403 24.357 14.3215C24.5484 14.4781 24.7485 14.5969 24.9573 14.6781C25.1718 14.7593 25.4096 14.8463 25.6706 14.9391C25.9374 15.0319 26.2215 15.1392 26.5231 15.261C26.8247 15.3886 27.132 15.5248 27.4452 15.6698C27.7584 15.8206 28.0396 15.9859 28.289 16.1657C28.8573 16.5658 29.1415 16.9689 29.1415 17.3748C29.1415 17.7808 28.8428 18.2187 28.2455 18.6884C27.3466 19.4017 26.1809 19.8918 24.7485 20.1586C24.2903 20.2455 23.9076 20.289 23.6002 20.289C23.2986 20.289 23.0377 20.2774 22.8173 20.2542C22.5969 20.2368 22.3678 20.2049 22.1301 20.1586C21.8981 20.118 21.669 20.0629 21.4428 19.9933C21.2167 19.9237 21.0137 19.8367 20.8339 19.7323C20.4337 19.5003 20.2337 19.2365 20.2337 18.9407C20.2337 18.6449 20.2888 18.3868 20.3989 18.1665C20.5091 17.9461 20.6541 17.7431 20.8339 17.5575C21.0137 17.3719 21.2167 17.2038 21.4428 17.053C21.669 16.9022 21.8981 16.7601 22.1301 16.6267C22.362 16.4991 22.5853 16.3774 22.7999 16.2614C23.0145 16.1512 23.2 16.0439 23.3566 15.9395C22.6723 15.6553 22.3301 15.319 22.3301 14.9304C22.3301 14.5418 22.7535 14.0634 23.6002 13.4951C23.8032 13.3617 23.9656 13.2486 24.0873 13.1558C23.838 13.2312 23.5567 13.2689 23.2435 13.2689C22.9362 13.2689 22.6375 13.1906 22.3475 13.034C22.0576 12.8716 21.8111 12.6628 21.6081 12.4077C21.1964 11.8799 20.9905 11.2507 20.9905 10.52C20.9905 9.78925 21.263 9.09623 21.8082 8.4409C22.2895 7.86676 22.9304 7.39121 23.7307 7.01425C24.4904 6.66049 25.2269 6.4836 25.9403 6.4836L28.4717 6.5445ZM22.913 8.01464C22.7622 8.24082 22.6868 8.61198 22.6868 9.12812C22.6868 9.64427 22.7332 10.0705 22.826 10.4069C22.9188 10.7375 23.0638 11.0274 23.2609 11.2768C23.6901 11.8277 24.2932 12.1032 25.0703 12.1032C25.5111 12.1032 25.833 11.8857 26.0359 11.4508C26.1867 11.1318 26.2621 10.7578 26.2621 10.3286C26.2621 9.50508 26.0823 8.85845 25.7228 8.3887C25.3632 7.91315 24.8442 7.67538 24.1656 7.67538C23.4871 7.67538 23.0696 7.78847 22.913 8.01464ZM27.0015 18.8276C27.1465 18.7464 27.248 18.6478 27.306 18.5318C27.3698 18.4158 27.4017 18.2622 27.4017 18.0708C27.4017 17.8852 27.2944 17.6967 27.0798 17.5053C26.8653 17.3198 26.584 17.1458 26.236 16.9834C25.8939 16.8268 25.0616 16.5252 23.7394 16.0787C23.2058 16.3049 22.8347 16.5049 22.6259 16.6789C22.1967 17.0385 21.9822 17.4444 21.9822 17.8968C21.9822 18.239 22.7796 18.5782 24.3744 18.9146C24.937 19.0364 25.3574 19.0973 25.6358 19.0973C25.9142 19.0973 26.1751 19.0741 26.4187 19.0277C26.6623 18.9813 26.8566 18.9146 27.0015 18.8276ZM35.8833 13.3907C35.0888 14.278 34.1029 14.8318 32.9256 15.0522C32.653 15.0986 32.3167 15.1218 31.9165 15.1218C31.5164 15.1218 31.1394 15.0116 30.7856 14.7912C30.4319 14.565 30.1419 14.2751 29.9157 13.9213C29.4866 13.237 29.272 12.4019 29.272 11.416C29.272 10.7664 29.5214 10.0473 30.0201 9.25861C30.5073 8.48149 31.1017 7.83196 31.8034 7.31002C32.5573 6.75328 33.2707 6.47491 33.9434 6.47491C34.2914 6.47491 34.5842 6.60249 34.822 6.85766C35.0424 7.10704 35.1526 7.39121 35.1526 7.71017C35.1526 8.02914 35.083 8.32491 34.9438 8.59748C34.8046 8.86425 34.6219 9.12522 34.3958 9.3804C34.1754 9.63557 33.9202 9.88204 33.6302 10.1198C33.3461 10.3518 33.0532 10.5693 32.7516 10.7722C32.3283 11.0622 31.7947 11.3899 31.151 11.7552C31.3366 12.457 31.6642 12.9992 32.134 13.382C32.6037 13.7589 33.2098 13.9474 33.9521 13.9474C34.5784 13.9474 35.2222 13.7618 35.8833 13.3907ZM33.2562 9.90234C33.4128 9.65297 33.491 9.40939 33.491 9.17162C33.491 8.93384 33.465 8.73377 33.4128 8.57138C33.3606 8.4032 33.2852 8.25532 33.1866 8.12773C32.9604 7.83776 32.6675 7.69278 32.308 7.69278C31.4265 7.69278 30.9857 8.59168 30.9857 10.3895C30.9857 10.7085 31.0118 11.0245 31.064 11.3377C32.0847 11.0535 32.8154 10.5751 33.2562 9.90234ZM41.0679 13.9213C40.8766 14.0721 40.6939 14.2229 40.5199 14.3737C40.3459 14.5245 40.1661 14.6578 39.9806 14.7738C39.5688 15.0406 39.1425 15.174 38.7018 15.174C38.0639 15.174 37.7159 14.7332 37.6579 13.8517C37.6463 13.6139 37.6405 13.382 37.6405 13.1558V3.84778C37.6405 3.05327 37.4607 2.53712 37.1012 2.29935C36.9504 2.19496 36.8054 2.14277 36.6662 2.14277C36.4806 2.14277 36.3559 2.14856 36.2922 2.16016C36.2284 2.16596 36.1733 2.17176 36.1269 2.17756C36.962 1.59762 37.4897 1.24966 37.7101 1.13367C38.0001 0.977089 38.2987 0.823405 38.6061 0.672621C38.9193 0.516038 39.1599 0.394251 39.3281 0.30726V12.312C39.3281 12.5498 39.3281 12.7701 39.3281 12.9731C39.3339 13.1761 39.3687 13.353 39.4325 13.5038C39.5775 13.8169 39.9429 13.9735 40.5286 13.9735C40.7142 13.9735 40.894 13.9561 41.0679 13.9213ZM44.3649 14.0779L42.6773 15.261L41.7639 13.8082L43.4515 12.6252L44.3649 14.0779ZM49.9758 13.9213C49.7844 14.0721 49.6017 14.2229 49.4278 14.3737C49.2538 14.5245 49.074 14.6578 48.8884 14.7738C48.4767 15.0406 48.0504 15.174 47.6097 15.174C46.9717 15.174 46.6238 14.7332 46.5658 13.8517C46.5542 13.6139 46.5484 13.382 46.5484 13.1558V3.84778C46.5484 3.05327 46.3686 2.53712 46.009 2.29935C45.8582 2.19496 45.7133 2.14277 45.5741 2.14277C45.3885 2.14277 45.2638 2.14856 45.2 2.16016C45.1362 2.16596 45.0811 2.17176 45.0347 2.17756C45.8698 1.59762 46.3976 1.24966 46.618 1.13367C46.9079 0.977089 47.2066 0.823405 47.514 0.672621C47.8271 0.516038 48.0678 0.394251 48.236 0.30726V12.312C48.236 12.5498 48.236 12.7701 48.236 12.9731C48.2418 13.1761 48.2766 13.353 48.3404 13.5038C48.4854 13.8169 48.8507 13.9735 49.4365 13.9735C49.622 13.9735 49.8018 13.9561 49.9758 13.9213ZM53.1771 0.237668L53.2293 1.22936V1.68171C53.2293 1.96008 53.1945 2.13117 53.1249 2.19496C53.0553 2.25295 52.9799 2.31095 52.8987 2.36894C52.5739 2.60092 52.1042 2.91408 51.4894 3.30844C51.5184 2.7285 51.5329 2.42983 51.5329 2.41244C51.5329 2.38924 51.5184 2.05867 51.4894 1.42074L53.1771 0.237668ZM54.9952 13.93C54.8212 14.0692 54.6501 14.2113 54.4819 14.3563C54.3195 14.5013 54.1485 14.6346 53.9687 14.7564C53.5511 15.029 53.151 15.1653 52.7682 15.1653C52.4086 15.1653 52.1564 15.1102 52.0114 15C51.7156 14.7796 51.5677 14.3737 51.5677 13.7821V9.65877C51.5677 9.03243 51.4546 8.62648 51.2285 8.4409C51.1241 8.35391 51.011 8.31041 50.8892 8.31041C50.7674 8.31041 50.663 8.31911 50.576 8.33651C50.4948 8.34811 50.4108 8.3626 50.3238 8.38C50.2368 8.3974 50.1469 8.4148 50.0541 8.4322C50.3441 8.20602 50.6137 8.00304 50.8631 7.82326C51.1183 7.64348 51.3358 7.4927 51.5155 7.37091C51.6953 7.24912 51.9447 7.07804 52.2637 6.85766C52.5826 6.63149 52.9132 6.42851 53.2553 6.24873V12.3903C53.2553 12.9818 53.293 13.3559 53.3684 13.5125C53.5308 13.8314 53.8904 13.9909 54.4471 13.9909C54.5979 13.9909 54.7806 13.9706 54.9952 13.93ZM56.6219 14.4085L56.6306 8.81496C56.6306 8.4264 56.5784 8.16543 56.474 8.03204C56.2942 7.80006 56.0449 7.68408 55.7259 7.68408C55.4069 7.68408 55.1228 7.73047 54.8734 7.82326C55.0242 7.76527 55.2213 7.62898 55.4649 7.41441C55.9115 7.00265 56.2275 6.76197 56.4131 6.69238C56.7611 6.5532 57.0655 6.4836 57.3265 6.4836C57.5933 6.4836 57.7905 6.5271 57.9181 6.61409C58.0514 6.70108 58.1471 6.81707 58.2051 6.96205C58.2805 7.14183 58.3182 7.484 58.3182 7.98854C59.4027 7.03165 60.4176 6.5532 61.3629 6.5532C61.879 6.5532 62.3285 6.71558 62.7112 7.04035C63.1114 7.38831 63.3115 7.81166 63.3115 8.31041V12.6078C63.3115 13.0369 63.3579 13.3327 63.4507 13.4951C63.6247 13.8024 63.9146 13.9561 64.3206 13.9561C64.5526 13.9561 64.7729 13.9126 64.9817 13.8256C64.4656 14.2722 64.1089 14.5592 63.9117 14.6868C63.4594 14.9826 63.0621 15.1305 62.7199 15.1305C62.3836 15.1305 62.1429 15.0696 61.9979 14.9478C61.8587 14.826 61.7601 14.6723 61.7022 14.4868C61.6384 14.2838 61.6065 13.8691 61.6065 13.2428V9.98933C61.6065 8.95124 61.2672 8.26691 60.5887 7.93635C60.3451 7.82036 60.0522 7.76237 59.7101 7.76237C58.8692 7.76237 58.4139 8.3858 58.3443 9.63267C58.3269 9.94584 58.3182 10.2271 58.3182 10.4765V13.1645C58.3182 13.5357 58.4313 13.7879 58.6575 13.9213C58.7387 13.9735 58.8402 13.9996 58.9619 13.9996C59.0837 13.9996 59.2113 13.9706 59.3447 13.9126C59.2229 14.017 59.0779 14.1417 58.9098 14.2867C58.7416 14.4317 58.5647 14.5708 58.3791 14.7042C57.921 15.0174 57.5556 15.174 57.283 15.174C56.8423 15.174 56.6219 14.9188 56.6219 14.4085ZM72.1758 13.3907C71.3813 14.278 70.3954 14.8318 69.2182 15.0522C68.9456 15.0986 68.6092 15.1218 68.2091 15.1218C67.8089 15.1218 67.4319 15.0116 67.0782 14.7912C66.7244 14.565 66.4344 14.2751 66.2083 13.9213C65.7791 13.237 65.5645 12.4019 65.5645 11.416C65.5645 10.7664 65.8139 10.0473 66.3127 9.25861C66.7998 8.48149 67.3942 7.83196 68.096 7.31002C68.8499 6.75328 69.5632 6.47491 70.2359 6.47491C70.5839 6.47491 70.8768 6.60249 71.1146 6.85766C71.3349 7.10704 71.4451 7.39121 71.4451 7.71017C71.4451 8.02914 71.3755 8.32491 71.2363 8.59748C71.0972 8.86425 70.9145 9.12522 70.6883 9.3804C70.4679 9.63557 70.2127 9.88204 69.9228 10.1198C69.6386 10.3518 69.3457 10.5693 69.0442 10.7722C68.6208 11.0622 68.0873 11.3899 67.4435 11.7552C67.6291 12.457 67.9568 12.9992 68.4265 13.382C68.8963 13.7589 69.5023 13.9474 70.2446 13.9474C70.871 13.9474 71.5147 13.7618 72.1758 13.3907ZM69.5487 9.90234C69.7053 9.65297 69.7836 9.40939 69.7836 9.17162C69.7836 8.93384 69.7575 8.73377 69.7053 8.57138C69.6531 8.4032 69.5777 8.25532 69.4791 8.12773C69.253 7.83776 68.9601 7.69278 68.6005 7.69278C67.719 7.69278 67.2783 8.59168 67.2783 10.3895C67.2783 10.7085 67.3044 11.0245 67.3566 11.3377C68.3772 11.0535 69.108 10.5751 69.5487 9.90234Z" fill="#F7EBEC"/>
</svg>
