<svg width="73" height="17" viewBox="0 0 73 17" fill="none" xmlns="http://www.w3.org/2000/svg">
<path d="M0.731543 5.47225C2.19628 5.52406 3.66102 5.52406 5.12576 5.47225C5.23409 5.79252 5.23409 6.07746 5.12576 6.32708C4.81963 6.37418 4.61475 6.43069 4.51114 6.49663C4.41223 6.55786 4.39104 6.67089 4.44755 6.83573L5.2176 8.90568L6.08656 6.83573C6.16191 6.66147 6.15485 6.54608 6.06536 6.48956C5.98059 6.42834 5.78513 6.37418 5.47899 6.32708C5.37067 6.03978 5.37067 5.75484 5.47899 5.47225C6.47276 5.50051 7.45945 5.50051 8.43909 5.47225C8.54741 5.75484 8.54741 6.03978 8.43909 6.32708C8.08585 6.35534 7.83388 6.4095 7.68317 6.48956C7.53246 6.56492 7.41942 6.68973 7.34407 6.86399L4.8573 12.4945H4.11552L1.90428 6.84986C1.83363 6.68502 1.70882 6.56728 1.52985 6.49663C1.35559 6.42127 1.08949 6.36476 0.731543 6.32708C0.623218 6.03978 0.623218 5.75484 0.731543 5.47225ZM4.91382 5.73365C3.59038 5.78074 2.26928 5.78074 0.950547 5.73365C0.89874 5.86081 0.89874 5.97149 0.950547 6.06569C1.30378 6.10807 1.57224 6.17166 1.75592 6.25643C1.9396 6.34121 2.08089 6.50605 2.1798 6.75096L4.32039 12.2049H4.66656L7.08267 6.75096C7.28519 6.32237 7.66668 6.09394 8.22715 6.06569C8.27425 5.97149 8.27425 5.86081 8.22715 5.73365C7.38881 5.7619 6.5434 5.7619 5.69093 5.73365C5.64384 5.86081 5.64384 5.97149 5.69093 6.06569C5.87462 6.0751 6.02062 6.09865 6.12894 6.13633C6.24198 6.1693 6.34324 6.23759 6.43272 6.34121C6.52692 6.44011 6.52692 6.5767 6.43272 6.75096L4.79372 10.6224L3.39492 6.75096C3.34311 6.62379 3.34311 6.51782 3.39492 6.43305C3.45144 6.34356 3.56212 6.27527 3.72696 6.22817C3.8918 6.18107 4.059 6.14811 4.22855 6.12927C4.40281 6.10572 4.63124 6.08452 4.91382 6.06569C4.96092 5.97149 4.96092 5.86081 4.91382 5.73365ZM13.9495 11.675C13.893 11.7834 13.893 11.8987 13.9495 12.0212C15.1741 11.9929 16.401 11.9929 17.6302 12.0212C17.6961 11.9082 17.6961 11.7928 17.6302 11.675C16.481 11.6185 15.9017 11.3924 15.8923 10.9968L15.8217 7.44329C15.7981 6.79805 15.6921 6.32708 15.5037 6.03036C15.3201 5.72894 14.9951 5.57822 14.5288 5.57822C13.747 5.57822 12.8168 6.11749 11.7383 7.19603V5.79016C11.7006 5.71481 11.6182 5.65358 11.491 5.60648C10.8364 5.91262 10.1558 6.10572 9.44933 6.18578C9.42108 6.29882 9.42108 6.4095 9.44933 6.51782C9.99096 6.54608 10.3913 6.64263 10.6503 6.80747C10.7021 8.2157 10.7021 9.61214 10.6503 10.9968C10.6409 11.3453 10.2359 11.5714 9.4352 11.675C9.37869 11.7834 9.37869 11.8987 9.4352 12.0212C10.6597 11.9741 11.8914 11.9741 13.13 12.0212C13.1865 11.8987 13.1865 11.7834 13.13 11.675C12.2493 11.5808 11.8042 11.3548 11.7948 10.9968C11.7571 10.0172 11.7383 8.90097 11.7383 7.64817C12.6849 6.81454 13.4267 6.39772 13.9637 6.39772C14.477 6.39772 14.7337 6.82396 14.7337 7.67643L14.7196 10.9968C14.7196 11.2276 14.6489 11.3901 14.5076 11.4843C14.3663 11.5738 14.1803 11.6373 13.9495 11.675ZM13.7235 12.2685C13.6057 11.9906 13.6057 11.7056 13.7235 11.4136C13.8742 11.4136 14.0296 11.3736 14.1897 11.2935C14.3499 11.2088 14.4299 11.1099 14.4299 10.9968L14.444 7.67643C14.444 7.16306 14.3428 6.84986 14.1403 6.73683C13.7917 6.8216 13.3231 7.07593 12.7344 7.49981C12.7344 8.795 12.7532 9.95596 12.7909 10.9827C12.8145 11.2323 13.0029 11.376 13.3561 11.4136C13.4738 11.7056 13.4738 11.9906 13.3561 12.2685C11.9761 12.2214 10.5891 12.2214 9.19501 12.2685C9.07726 11.9906 9.07726 11.7056 9.19501 11.4136C9.9627 11.31 10.3513 11.1664 10.3607 10.9827C10.4125 9.65453 10.4125 8.31931 10.3607 6.97703C10.0451 6.88283 9.65656 6.8216 9.19501 6.79335C9.08668 6.51076 9.08668 6.21169 9.19501 5.89613C9.90618 5.85846 10.7068 5.64652 11.597 5.26031C12.1056 5.29799 12.4848 5.45106 12.7344 5.71952V5.95265C13.4032 5.50993 14.1709 5.28857 15.0375 5.28857C15.6733 5.28857 16.1254 5.46283 16.3939 5.81136C16.6671 6.15517 16.8084 6.69915 16.8178 7.44329C16.8366 9.31307 16.8602 10.4976 16.8884 10.9968C16.8978 11.1899 17.2299 11.3289 17.8845 11.4136C17.9929 11.7245 17.9834 12.0094 17.8563 12.2685C16.4763 12.2402 15.0987 12.2402 13.7235 12.2685ZM20.4208 7.9025C20.4208 7.24784 20.5432 6.77451 20.7881 6.4825C21.0377 6.18578 21.3509 6.03743 21.7277 6.03743C22.0056 6.03743 22.2623 6.17166 22.4978 6.44011C22.738 6.70386 22.8581 7.14893 22.8581 7.77533C22.8581 9.11762 22.4907 9.78876 21.756 9.78876C20.8658 9.78876 20.4208 9.16001 20.4208 7.9025ZM20.3925 13.8792C20.3925 13.3611 20.6916 12.942 21.2897 12.6217C21.6665 12.584 22.2458 12.5652 23.0276 12.5652C23.5881 12.5652 23.9625 12.6688 24.1509 12.876C24.3393 13.0832 24.4335 13.3847 24.4335 13.7803C24.4335 14.1194 24.2522 14.4703 23.8895 14.8329C23.5268 15.2003 22.9852 15.384 22.2646 15.384C21.6147 15.384 21.139 15.2356 20.8376 14.9389C20.5409 14.6469 20.3925 14.2937 20.3925 13.8792ZM24.9351 5.882C25.0622 5.89142 25.1258 5.95736 25.1258 6.07981C25.1258 6.23524 25.0293 6.32708 24.8362 6.35534C24.6713 6.37418 24.4688 6.3365 24.2286 6.2423C24.1014 6.1952 23.939 6.12927 23.7411 6.04449C23.5433 5.95501 23.4044 5.89378 23.3243 5.86081C23.2443 5.82313 23.1336 5.78074 22.9923 5.73365C22.851 5.68655 22.7285 5.65593 22.6249 5.64181C22.526 5.62768 22.4012 5.61355 22.2505 5.59942C22.1045 5.58529 21.9397 5.57822 21.756 5.57822C21.0401 5.57822 20.4325 5.81842 19.9333 6.29882C19.4388 6.77922 19.1915 7.30907 19.1915 7.88837C19.1915 8.82561 19.6177 9.52972 20.4702 10.0007C19.7072 10.5706 19.3257 11.0816 19.3257 11.5337C19.3257 12.1036 19.7779 12.4568 20.6821 12.5934C19.759 13.0927 19.2975 13.6908 19.2975 14.3879C19.2975 14.84 19.5094 15.2168 19.9333 15.5182C20.3572 15.8243 20.9789 15.9774 21.7984 15.9774C22.7733 15.9774 23.5975 15.6548 24.271 15.0095C24.9492 14.3643 25.2883 13.7073 25.2883 13.0385C25.2883 11.96 24.6313 11.4207 23.3173 11.4207C23.1713 11.4207 22.9782 11.4254 22.738 11.4348C22.4978 11.4442 22.3329 11.449 22.2434 11.449C21.5228 11.449 21.0142 11.4019 20.7175 11.3077C20.4255 11.2088 20.2795 11.0533 20.2795 10.8414C20.2795 10.5729 20.4867 10.3516 20.9011 10.1773C21.1884 10.2244 21.4922 10.248 21.8125 10.248C22.4483 10.248 22.9852 10.0266 23.4232 9.58389C23.866 9.14117 24.0873 8.54303 24.0873 7.78946C24.0873 7.19132 23.9743 6.73918 23.7482 6.43305L23.7835 6.39772C23.8589 6.44953 23.9601 6.52253 24.0873 6.61673C24.2192 6.70621 24.3181 6.7698 24.384 6.80747C24.4547 6.84515 24.5442 6.88283 24.6525 6.92051C24.7655 6.95819 24.8762 6.97703 24.9845 6.97703C25.1635 6.97703 25.3142 6.90873 25.4367 6.77215C25.5591 6.63086 25.6203 6.46366 25.6203 6.27056C25.6203 6.06804 25.5615 5.89849 25.4437 5.7619C25.3307 5.62061 25.1611 5.54996 24.9351 5.54996C24.8691 5.67242 24.8691 5.7831 24.9351 5.882ZM25.0269 7.26668C25.0646 7.4221 25.0834 7.59636 25.0834 7.78946C25.0834 8.6278 24.815 9.29659 24.2781 9.79583C23.7459 10.2904 23.0935 10.5376 22.3211 10.5376H21.4381C21.3015 10.693 21.2614 10.832 21.318 10.9544C21.3792 11.0722 21.4922 11.131 21.6571 11.131H24.0237C25.5309 11.131 26.2844 11.7669 26.2844 13.0385C26.2844 13.3776 26.1832 13.7332 25.9806 14.1053C25.7781 14.4773 25.4955 14.8235 25.1329 15.1438C24.7702 15.4687 24.2945 15.7372 23.7058 15.9491C23.1171 16.1611 22.4813 16.2671 21.7984 16.2671C20.88 16.2671 20.1853 16.0881 19.7143 15.7301C19.2433 15.3769 19.0078 14.9295 19.0078 14.3879C19.0078 13.7897 19.321 13.234 19.9474 12.7206C19.3399 12.5087 19.0361 12.113 19.0361 11.5337C19.0361 11.0345 19.3446 10.5282 19.9615 10.0148C19.2551 9.50617 18.9019 8.79735 18.9019 7.88837C18.9019 7.24313 19.1797 6.6497 19.7355 6.10807C20.2912 5.56174 20.9647 5.28857 21.756 5.28857C22.3447 5.28857 22.778 5.31919 23.0559 5.38041C23.3385 5.44164 23.6917 5.55938 24.1156 5.73365C24.3275 5.41809 24.6007 5.26031 24.9351 5.26031C25.2648 5.26031 25.5097 5.35686 25.6698 5.54996C25.8299 5.74307 25.91 5.98326 25.91 6.27056C25.91 6.54844 25.8299 6.78393 25.6698 6.97703C25.5097 7.17013 25.2954 7.26668 25.0269 7.26668ZM21.3957 13.8792C21.3957 14.1806 21.4828 14.4444 21.6571 14.6704C21.836 14.8965 22.1233 15.0331 22.519 15.0802C23.0606 15.0331 23.4656 14.8659 23.7341 14.5786C24.0072 14.296 24.1438 14.0299 24.1438 13.7803C24.1438 13.4883 24.0779 13.2599 23.946 13.095C23.8141 12.9349 23.5622 12.8548 23.1901 12.8548C22.7427 12.8548 22.3023 12.8737 21.869 12.9113C21.5535 13.1798 21.3957 13.5024 21.3957 13.8792ZM21.4239 7.9025C21.4239 8.79264 21.617 9.31072 22.0032 9.45672C22.38 9.31072 22.5684 8.75026 22.5684 7.77533C22.5684 7.00293 22.3706 6.53902 21.975 6.38359C21.6076 6.53902 21.4239 7.04532 21.4239 7.9025ZM30.3678 6.03743C30.7446 6.03743 31.0177 6.15988 31.1873 6.40479C31.3568 6.64499 31.4416 6.94641 31.4416 7.30907C31.4416 7.44565 31.4181 7.60107 31.371 7.77533H28.6158C28.7618 7.18661 28.9972 6.75096 29.3222 6.46837C29.6519 6.18107 30.0004 6.03743 30.3678 6.03743ZM28.5451 8.25573H32.3954C32.4707 8.02024 32.5084 7.77769 32.5084 7.52807C32.5084 6.97703 32.3506 6.51547 32.0351 6.1434C31.7242 5.76661 31.2273 5.57822 30.5444 5.57822C29.6543 5.57822 28.9054 5.90084 28.2978 6.54608C27.6903 7.19132 27.3865 8.01082 27.3865 9.00458C27.3865 10.0643 27.6762 10.8626 28.2555 11.3995C28.8348 11.9364 29.5153 12.2049 30.2971 12.2049C30.8764 12.2049 31.4134 12.0495 31.9079 11.7386C32.4071 11.4231 32.7721 10.9497 33.0029 10.3186C32.937 10.2433 32.8451 10.1914 32.7274 10.1632C32.7086 10.1914 32.652 10.2692 32.5578 10.3963C32.4684 10.5188 32.4024 10.6083 32.36 10.6648C32.3176 10.7166 32.2399 10.7943 32.1269 10.8979C32.0186 10.9968 31.9126 11.0698 31.809 11.1169C31.7101 11.164 31.5829 11.2111 31.4275 11.2582C31.2721 11.3006 31.1025 11.3218 30.9188 11.3218C30.1935 11.3218 29.6166 11.1075 29.188 10.6789C28.7594 10.2456 28.5357 9.66395 28.5169 8.93394C28.5169 8.7691 28.5263 8.54303 28.5451 8.25573ZM32.6144 9.83115C32.9111 9.89709 33.1513 10.0454 33.335 10.2762C33.0665 11.0109 32.652 11.5643 32.0916 11.9364C31.5311 12.3085 30.933 12.4945 30.2971 12.4945C29.4305 12.4945 28.6793 12.2025 28.0435 11.6185C27.4124 11.0345 27.0969 10.1632 27.0969 9.00458C27.0969 7.9543 27.4195 7.07358 28.0647 6.3624C28.7147 5.64652 29.6331 5.28857 30.8199 5.28857C32.6144 5.28857 33.5116 6.03507 33.5116 7.52807C33.5116 7.82008 33.4433 8.15918 33.3067 8.54538H29.513V9.00458C29.5365 9.57447 29.6919 10.0384 29.9792 10.3963C30.2665 10.7496 30.6622 10.9568 31.1661 11.018C31.4628 10.9898 31.7077 10.8885 31.9008 10.7142C32.0939 10.54 32.3318 10.2456 32.6144 9.83115ZM31.152 7.30907C31.152 6.79099 30.9777 6.47779 30.6292 6.36947C30.2147 6.49663 29.9062 6.8687 29.7037 7.48568H31.1378C31.1378 7.46684 31.1402 7.43858 31.1449 7.40091C31.1496 7.36323 31.152 7.33261 31.152 7.30907ZM38.9372 11.675C37.8163 11.5714 37.2511 11.3453 37.2417 10.9968C37.1946 8.3876 37.1758 5.20615 37.1852 1.45246C37.1475 1.37711 37.0651 1.31352 36.9379 1.26172C36.2833 1.57256 35.6027 1.76566 34.8962 1.84102C34.868 1.95876 34.868 2.06944 34.8962 2.17306C35.4284 2.20603 35.8335 2.30258 36.1114 2.46271C36.149 6.00446 36.1443 8.84916 36.0972 10.9968C36.0878 11.3453 35.6875 11.5714 34.8962 11.675C34.8491 11.7928 34.8491 11.9082 34.8962 12.0212C35.9889 11.9835 37.3359 11.9835 38.9372 12.0212C38.9843 11.9082 38.9843 11.7928 38.9372 11.675ZM39.1916 11.4136C39.2716 11.7056 39.2716 11.9906 39.1916 12.2685C37.3783 12.2308 35.8594 12.2308 34.6349 12.2685C34.5595 11.9906 34.5595 11.7056 34.6349 11.4136C35.4073 11.3383 35.7982 11.1946 35.8076 10.9827C35.8641 8.21805 35.8688 5.43693 35.8217 2.63932C35.5062 2.54042 35.1105 2.47684 34.6349 2.44858C34.5312 2.1707 34.5312 1.87163 34.6349 1.55137C35.3507 1.51369 36.1514 1.30175 37.0368 0.915548C37.5502 0.953226 37.9317 1.10865 38.1813 1.38182C38.1625 5.57822 38.1813 8.77851 38.2378 10.9827C38.2472 11.1946 38.5652 11.3383 39.1916 11.4136ZM41.1485 10.7142C41.0025 10.8744 40.9295 11.0769 40.9295 11.3218C40.9295 11.4395 40.9483 11.5526 40.986 11.6609C41.0284 11.7645 41.0849 11.8564 41.1555 11.9364C41.2262 12.0118 41.3062 12.073 41.3957 12.1201C41.4899 12.1672 41.5912 12.1907 41.6995 12.1907C41.8031 12.1907 41.8997 12.1672 41.9892 12.1201C42.0834 12.073 42.1658 12.0118 42.2364 11.9364C42.3071 11.8564 42.3612 11.7645 42.3989 11.6609C42.4413 11.5526 42.4625 11.4395 42.4625 11.3218C42.4625 11.204 42.4413 11.0934 42.3989 10.9898C42.3612 10.8861 42.3071 10.7943 42.2364 10.7142C42.1658 10.6342 42.0834 10.5706 41.9892 10.5235C41.8997 10.4764 41.8031 10.4528 41.6995 10.4528C41.4876 10.4528 41.3039 10.54 41.1485 10.7142ZM41.7984 10.1632C42.8581 10.1632 43.388 10.5494 43.388 11.3218C43.388 12.0942 42.8581 12.4804 41.7984 12.4804C41.643 12.4804 41.4946 12.4498 41.3533 12.3886C41.2168 12.3273 41.0943 12.2449 40.986 12.1413C40.8824 12.0377 40.7976 11.9152 40.7317 11.7739C40.6704 11.6326 40.6398 11.4819 40.6398 11.3218C40.6398 11.1617 40.6704 11.0109 40.7317 10.8697C40.7929 10.7284 40.8753 10.6059 40.9789 10.5023C41.0872 10.3987 41.2121 10.3163 41.3533 10.255C41.4946 10.1938 41.643 10.1632 41.7984 10.1632ZM49.2092 11.675C48.0883 11.5714 47.5231 11.3453 47.5137 10.9968C47.4666 8.3876 47.4478 5.20615 47.4572 1.45246C47.4195 1.37711 47.3371 1.31352 47.2099 1.26172C46.5553 1.57256 45.8747 1.76566 45.1683 1.84102C45.14 1.95876 45.14 2.06944 45.1683 2.17306C45.7005 2.20603 46.1055 2.30258 46.3834 2.46271C46.4211 6.00446 46.4163 8.84916 46.3693 10.9968C46.3598 11.3453 45.9595 11.5714 45.1683 11.675C45.1212 11.7928 45.1212 11.9082 45.1683 12.0212C46.2609 11.9835 47.6079 11.9835 49.2092 12.0212C49.2563 11.9082 49.2563 11.7928 49.2092 11.675ZM49.4636 11.4136C49.5436 11.7056 49.5436 11.9906 49.4636 12.2685C47.6503 12.2308 46.1314 12.2308 44.9069 12.2685C44.8315 11.9906 44.8315 11.7056 44.9069 11.4136C45.6793 11.3383 46.0702 11.1946 46.0796 10.9827C46.1361 8.21805 46.1408 5.43693 46.0937 2.63932C45.7782 2.54042 45.3826 2.47684 44.9069 2.44858C44.8033 2.1707 44.8033 1.87163 44.9069 1.55137C45.6228 1.51369 46.4234 1.30175 47.3089 0.915548C47.8222 0.953226 48.2037 1.10865 48.4533 1.38182C48.4345 5.57822 48.4533 8.77851 48.5098 10.9827C48.5193 11.1946 48.8372 11.3383 49.4636 11.4136ZM52.5155 2.07415C53.5799 2.07415 54.1121 2.46035 54.1121 3.23276C54.1121 4.00516 53.5799 4.39136 52.5155 4.39136C52.3554 4.39136 52.2047 4.36075 52.0634 4.29952C51.9268 4.23829 51.8067 4.15587 51.7031 4.05226C51.5995 3.94393 51.517 3.81912 51.4558 3.67783C51.3946 3.53654 51.364 3.38818 51.364 3.23276C51.364 3.07733 51.3946 2.92898 51.4558 2.78768C51.517 2.64639 51.5995 2.52394 51.7031 2.42032C51.8067 2.312 51.9268 2.22722 52.0634 2.16599C52.2047 2.10477 52.3554 2.07415 52.5155 2.07415ZM51.8656 2.6252C51.7243 2.79004 51.6536 2.99256 51.6536 3.23276C51.6536 3.35521 51.6725 3.4706 51.7101 3.57892C51.7525 3.68254 51.809 3.77438 51.8797 3.85445C51.9503 3.9298 52.0304 3.99103 52.1199 4.03813C52.2141 4.08052 52.313 4.10171 52.4166 4.10171C52.5155 4.10171 52.6121 4.08052 52.7063 4.03813C52.8004 3.99103 52.8829 3.9298 52.9535 3.85445C53.0242 3.77438 53.0807 3.68254 53.1231 3.57892C53.1655 3.4706 53.1866 3.35521 53.1866 3.23276C53.1866 3.1103 53.1655 2.99727 53.1231 2.89365C53.0807 2.78533 53.0242 2.69349 52.9535 2.61813C52.8829 2.53806 52.8004 2.47684 52.7063 2.43445C52.6121 2.38735 52.5155 2.3638 52.4166 2.3638C52.3177 2.3638 52.2211 2.385 52.1269 2.42738C52.0328 2.46977 51.9456 2.53571 51.8656 2.6252ZM54.7197 11.675C53.5988 11.5714 53.0336 11.3453 53.0242 10.9968C52.9771 9.58389 52.9582 7.84833 52.9676 5.79016C52.93 5.71481 52.8475 5.65358 52.7204 5.60648C52.0657 5.91262 51.3852 6.10572 50.6787 6.18578C50.6504 6.29882 50.6504 6.4095 50.6787 6.51782C51.2109 6.54608 51.6159 6.64263 51.8938 6.80747C51.9362 8.56422 51.9315 9.96067 51.8797 10.9968C51.8703 11.3453 51.4699 11.5714 50.6787 11.675C50.6316 11.7928 50.6316 11.9082 50.6787 12.0212C52.0304 11.9929 53.3774 11.9929 54.7197 12.0212C54.7668 11.9082 54.7668 11.7928 54.7197 11.675ZM54.9811 11.4136C55.0564 11.7056 55.0564 11.9906 54.9811 12.2685C53.4645 12.2214 51.9456 12.2214 50.4244 12.2685C50.3443 11.9906 50.3443 11.7056 50.4244 11.4136C51.1921 11.3383 51.5806 11.1946 51.59 10.9827C51.6513 9.66395 51.656 8.32873 51.6042 6.97703C51.2886 6.88283 50.8953 6.8216 50.4244 6.79335C50.316 6.51076 50.316 6.21169 50.4244 5.89613C51.1355 5.85846 51.9362 5.64652 52.8264 5.26031C53.335 5.29799 53.7141 5.45106 53.9638 5.71952C53.9449 8.03673 53.9638 9.79112 54.0203 10.9827C54.0344 11.1946 54.3547 11.3383 54.9811 11.4136ZM60.7034 11.675C60.6469 11.7834 60.6469 11.8987 60.7034 12.0212C61.928 11.9929 63.1549 11.9929 64.3841 12.0212C64.4501 11.9082 64.4501 11.7928 64.3841 11.675C63.235 11.6185 62.6556 11.3924 62.6462 10.9968L62.5756 7.44329C62.552 6.79805 62.4461 6.32708 62.2577 6.03036C62.074 5.72894 61.749 5.57822 61.2828 5.57822C60.5009 5.57822 59.5707 6.11749 58.4922 7.19603V5.79016C58.4545 5.71481 58.3721 5.65358 58.2449 5.60648C57.5903 5.91262 56.9097 6.10572 56.2033 6.18578C56.175 6.29882 56.175 6.4095 56.2033 6.51782C56.7449 6.54608 57.1452 6.64263 57.4043 6.80747C57.4561 8.2157 57.4561 9.61214 57.4043 10.9968C57.3948 11.3453 56.9898 11.5714 56.1891 11.675C56.1326 11.7834 56.1326 11.8987 56.1891 12.0212C57.4137 11.9741 58.6453 11.9741 59.8839 12.0212C59.9405 11.8987 59.9405 11.7834 59.8839 11.675C59.0032 11.5808 58.5581 11.3548 58.5487 10.9968C58.511 10.0172 58.4922 8.90097 58.4922 7.64817C59.4389 6.81454 60.1807 6.39772 60.7176 6.39772C61.2309 6.39772 61.4876 6.82396 61.4876 7.67643L61.4735 10.9968C61.4735 11.2276 61.4028 11.3901 61.2616 11.4843C61.1203 11.5738 60.9342 11.6373 60.7034 11.675ZM60.4774 12.2685C60.3596 11.9906 60.3596 11.7056 60.4774 11.4136C60.6281 11.4136 60.7835 11.3736 60.9436 11.2935C61.1038 11.2088 61.1838 11.1099 61.1838 10.9968L61.198 7.67643C61.198 7.16306 61.0967 6.84986 60.8942 6.73683C60.5457 6.8216 60.077 7.07593 59.4883 7.49981C59.4883 8.795 59.5072 9.95596 59.5448 10.9827C59.5684 11.2323 59.7568 11.376 60.11 11.4136C60.2278 11.7056 60.2278 11.9906 60.11 12.2685C58.7301 12.2214 57.343 12.2214 55.9489 12.2685C55.8312 11.9906 55.8312 11.7056 55.9489 11.4136C56.7166 11.31 57.1052 11.1664 57.1146 10.9827C57.1664 9.65453 57.1664 8.31931 57.1146 6.97703C56.799 6.88283 56.4105 6.8216 55.9489 6.79335C55.8406 6.51076 55.8406 6.21169 55.9489 5.89613C56.6601 5.85846 57.4608 5.64652 58.3509 5.26031C58.8596 5.29799 59.2387 5.45106 59.4883 5.71952V5.95265C60.1571 5.50993 60.9248 5.28857 61.7914 5.28857C62.4272 5.28857 62.8794 5.46283 63.1478 5.81136C63.421 6.15517 63.5623 6.69915 63.5717 7.44329C63.5905 9.31307 63.6141 10.4976 63.6423 10.9968C63.6518 11.1899 63.9838 11.3289 64.6385 11.4136C64.7468 11.7245 64.7374 12.0094 64.6102 12.2685C63.2302 12.2402 61.8526 12.2402 60.4774 12.2685ZM68.9267 6.03743C69.3035 6.03743 69.5767 6.15988 69.7462 6.40479C69.9158 6.64499 70.0005 6.94641 70.0005 7.30907C70.0005 7.44565 69.977 7.60107 69.9299 7.77533H67.1747C67.3207 7.18661 67.5562 6.75096 67.8811 6.46837C68.2108 6.18107 68.5594 6.03743 68.9267 6.03743ZM67.104 8.25573H70.9543C71.0296 8.02024 71.0673 7.77769 71.0673 7.52807C71.0673 6.97703 70.9095 6.51547 70.594 6.1434C70.2831 5.76661 69.7862 5.57822 69.1033 5.57822C68.2132 5.57822 67.4643 5.90084 66.8568 6.54608C66.2492 7.19132 65.9454 8.01082 65.9454 9.00458C65.9454 10.0643 66.2351 10.8626 66.8144 11.3995C67.3937 11.9364 68.0742 12.2049 68.8561 12.2049C69.4354 12.2049 69.9723 12.0495 70.4668 11.7386C70.966 11.4231 71.3311 10.9497 71.5618 10.3186C71.4959 10.2433 71.4041 10.1914 71.2863 10.1632C71.2675 10.1914 71.211 10.2692 71.1168 10.3963C71.0273 10.5188 70.9613 10.6083 70.9189 10.6648C70.8766 10.7166 70.7988 10.7943 70.6858 10.8979C70.5775 10.9968 70.4715 11.0698 70.3679 11.1169C70.269 11.164 70.1418 11.2111 69.9864 11.2582C69.831 11.3006 69.6614 11.3218 69.4778 11.3218C68.7525 11.3218 68.1755 11.1075 67.7469 10.6789C67.3183 10.2456 67.0946 9.66395 67.0758 8.93394C67.0758 8.7691 67.0852 8.54303 67.104 8.25573ZM71.1733 9.83115C71.47 9.89709 71.7102 10.0454 71.8939 10.2762C71.6254 11.0109 71.211 11.5643 70.6505 11.9364C70.09 12.3085 69.4919 12.4945 68.8561 12.4945C67.9895 12.4945 67.2383 12.2025 66.6024 11.6185C65.9713 11.0345 65.6558 10.1632 65.6558 9.00458C65.6558 7.9543 65.9784 7.07358 66.6236 6.3624C67.2736 5.64652 68.192 5.28857 69.3789 5.28857C71.1733 5.28857 72.0705 6.03507 72.0705 7.52807C72.0705 7.82008 72.0022 8.15918 71.8656 8.54538H68.0719V9.00458C68.0954 9.57447 68.2509 10.0384 68.5382 10.3963C68.8255 10.7496 69.2211 10.9568 69.725 11.018C70.0217 10.9898 70.2666 10.8885 70.4597 10.7142C70.6528 10.54 70.8907 10.2456 71.1733 9.83115ZM69.7109 7.30907C69.7109 6.79099 69.5366 6.47779 69.1881 6.36947C68.7736 6.49663 68.4652 6.8687 68.2626 7.48568H69.6968C69.6968 7.46684 69.6991 7.43858 69.7038 7.40091C69.7085 7.36323 69.7109 7.33261 69.7109 7.30907Z" fill="#F7EBEC"/>
</svg>
